<svg width="270" height="261" viewBox="0 0 270 261" fill="none" xmlns="http://www.w3.org/2000/svg">
  <g id="award-from">
    <g>
      <g id="l-back">
        <animateTransform
          attributeName="transform"
          type="translate"
          values="0,0; 0,-3; 0,3; 0,0"
          keyTimes="0; 0.25; 0.75; 1"
          dur="2s"
          repeatCount="indefinite"
        />
        <path d="M80.46 103.26H89.62C90.0529 103.26 90.4815 103.345 90.8813 103.511C91.2812 103.677 91.6443 103.921 91.9499 104.227C92.2556 104.534 92.4977 104.898 92.6624 105.298C92.8272 105.698 92.9113 106.127 92.91 106.56V112.27C92.9113 112.703 92.8272 113.132 92.6624 113.532C92.4977 113.932 92.2556 114.296 91.9499 114.603C91.6443 114.909 91.2812 115.153 90.8813 115.319C90.4815 115.485 90.0529 115.57 89.62 115.57H72.8C72.4499 115.57 72.1142 115.431 71.8666 115.183C71.6191 114.936 71.48 114.6 71.48 114.25V112.25C71.48 109.863 72.4282 107.574 74.116 105.886C75.8039 104.198 78.0931 103.25 80.48 103.25" fill="#068E4D"/>
        <path d="M80.46 103.26H89.62C90.0529 103.26 90.4815 103.345 90.8813 103.511C91.2812 103.677 91.6443 103.921 91.9499 104.227C92.2556 104.534 92.4977 104.898 92.6624 105.298C92.8272 105.698 92.9113 106.127 92.91 106.56V112.27C92.9113 112.703 92.8272 113.132 92.6624 113.532C92.4977 113.932 92.2556 114.296 91.9499 114.603C91.6443 114.909 91.2812 115.153 90.8813 115.319C90.4815 115.485 90.0529 115.57 89.62 115.57H72.8C72.4499 115.57 72.1142 115.431 71.8666 115.183C71.6191 114.936 71.48 114.6 71.48 114.25V112.25C71.4826 109.868 72.4293 107.585 74.1125 105.9C75.7957 104.214 78.0783 103.265 80.46 103.26V103.26Z" stroke="white" stroke-width="2" stroke-linecap="round" stroke-linejoin="round"/>
        <path d="M80.46 137.31H89.62C90.0529 137.31 90.4815 137.225 90.8813 137.059C91.2812 136.893 91.6443 136.649 91.9499 136.343C92.2556 136.036 92.4977 135.672 92.6624 135.272C92.8272 134.872 92.9113 134.443 92.91 134.01V128.3C92.9113 127.867 92.8272 127.438 92.6624 127.038C92.4977 126.638 92.2556 126.274 91.9499 125.967C91.6443 125.661 91.2812 125.417 90.8813 125.251C90.4815 125.085 90.0529 125 89.62 125H72.8C72.4499 125 72.1142 125.139 71.8666 125.387C71.6191 125.634 71.48 125.97 71.48 126.32V128.32C71.48 130.707 72.4282 132.996 74.116 134.684C75.8039 136.372 78.0931 137.32 80.48 137.32" fill="#068E4D"/>
        <path d="M80.46 137.31H89.62C90.0529 137.31 90.4815 137.225 90.8813 137.059C91.2812 136.893 91.6443 136.649 91.9499 136.343C92.2556 136.036 92.4977 135.672 92.6624 135.272C92.8272 134.872 92.9113 134.443 92.91 134.01V128.3C92.9113 127.867 92.8272 127.438 92.6624 127.038C92.4977 126.638 92.2556 126.274 91.9499 125.967C91.6443 125.661 91.2812 125.417 90.8813 125.251C90.4815 125.085 90.0529 125 89.62 125H72.8C72.4499 125 72.1142 125.139 71.8666 125.387C71.6191 125.634 71.48 125.97 71.48 126.32V128.32C71.4826 130.702 72.4293 132.985 74.1125 134.67C75.7957 136.356 78.0783 137.305 80.46 137.31V137.31Z" stroke="white" stroke-width="2" stroke-linecap="round" stroke-linejoin="round"/>
      </g>
      <g id="cabin">
        <animateTransform
          attributeName="transform"
          type="scale"
          values="1 1; 1 0.99; 1 1.01; 1 1"
          keyTimes="0; 0.25; 0.75; 1"
          dur="2s"
          repeatCount="indefinite"
        />
        <path d="M132.67 179.2H181.03C184.093 179.198 187.061 178.136 189.431 176.195C191.8 174.254 193.425 171.553 194.03 168.55L197.77 150.23H129.59V176.12C129.593 176.936 129.918 177.718 130.495 178.295C131.072 178.872 131.854 179.197 132.67 179.2V179.2Z" stroke="white" stroke-width="2" stroke-linecap="round" stroke-linejoin="round"/>
        <path d="M193.02 171.61H183.8C181.601 171.602 179.495 170.723 177.943 169.165C176.391 167.608 175.52 165.499 175.52 163.3V150.23" stroke="white" stroke-width="2" stroke-miterlimit="10" stroke-linecap="round"/>
        <path d="M142.87 161.8H140.82C139.908 161.805 139.036 162.171 138.393 162.818C137.751 163.464 137.39 164.338 137.39 165.25V168.17C137.39 169.082 137.751 169.956 138.393 170.602C139.036 171.249 139.908 171.615 140.82 171.62H142.87C143.782 171.615 144.654 171.249 145.297 170.602C145.939 169.956 146.3 169.082 146.3 168.17V165.25C146.3 164.338 145.939 163.464 145.297 162.818C144.654 162.171 143.782 161.805 142.87 161.8V161.8Z" stroke="white" stroke-width="2" stroke-linecap="round" stroke-linejoin="round"/>
      </g>
      <g id="plane-air">
        <line x1="65.48" y1="110.03" x2="43.28" y2="110.03" fill="none" stroke="#fff" stroke-linecap="round" stroke-miterlimit="10" stroke-width="2">
          <animate
            attributeName="scale"
            from="43"
            to="38"
            dur="0.2s"
            repeatCount="indefinite"
            begin="0.2s"
          />
        </line>
        <line x1="65.48" y1="121.52" x2="28" y2="121.52" fill="none" stroke="#fff" stroke-linecap="round" stroke-miterlimit="10" stroke-width="2">
          <animate
            attributeName="scale"
            from="28"
            to="23"
            dur="0.2s"
            begin="0.1s"
            repeatCount="indefinite"
          />
        </line>
        <line x1="65.48" y1="131.77" x2="43.28" y2="131.77" fill="none" stroke="#fff" stroke-linecap="round" stroke-miterlimit="10" stroke-width="2">
          <animate
            attributeName="scale"
            from="43"
            to="38"
            dur="0.2s"
            repeatCount="indefinite"
            begin="-0.1s"
          />
        </line>
      </g>
      <g id="plane-cloud-1" transform="translate(270 0)">
        <animateTransform
          attributeName="transform"
          type="translate"
          from="178"
          to="0"
          dur="2s"
          fill="freeze"
          id="start-move-cloud-1"
          begin="0.5s"
        />
        <animate
          attributeName="opacity"
          values="0; 1; 1; 0;"
          keyTimes="0; 0.1; 0.9; 1"
          dur="2s"
          fill="freeze"
          begin=".5s"
        />
        <line x1="28.18" y1="38.34" x2="91.09" y2="38.34" fill="none" stroke="#fff" stroke-linecap="round" stroke-miterlimit="10" stroke-width="2">
          <animateTransform
            attributeName="transform"
            type="translate"
            from="0"
            to="8"
            dur="2s"
            fill="freeze"
            begin=".5s"
          />
        </line>
        <path d="M41.77,97.54H77.06a12.4,12.4,0,1,1,24.8,0h17.93" transform="translate(-40.77 -69.46)" fill="none" stroke="#fff" stroke-linecap="round" stroke-miterlimit="10" stroke-width="2"/>
      </g>
      <g id="plane-cloud-2" transform="translate(178 0)">
        <animateTransform
          attributeName="transform"
          type="translate"
          from="0, 0"
          to="-166, 0"
          dur="2s"
          fill="freeze"
          id="transformCloud"
          begin="start-move-cloud-1.begin + 1.6s"
        />
        <animate
          attributeName="opacity"
          values="0; 1; 1; 0"
          keyTimes="0; 0.1; 0.9; 1"
          dur="2s"
          fill="freeze"
          begin="start-move-cloud-1.begin + 1.6s"
        />
        <line x1="218.19" y1="23.72" x2="257.97" y2="23.72" fill="none" stroke="#fff" stroke-linecap="round" stroke-miterlimit="10" stroke-width="2">
          <animateTransform
            attributeName="transform"
            type="translate"
            from="0"
            to="8"
            dur="1.4s"
            fill="freeze"
            begin="start-move-cloud-1.begin + 1.6s"
          />
        </line>
        <path d="M278.75,82.91H251.39a12.4,12.4,0,1,0-24.8,0H208.65" transform="translate(-40.77 -69.46)" fill="none" stroke="#fff" stroke-linecap="round" stroke-miterlimit="10" stroke-width="2"/>
        <line x1="246.24" y1="13.45" x2="268.43" y2="13.45" fill="none" stroke="#fff" stroke-linecap="round" stroke-miterlimit="10" stroke-width="2"/>
      </g>
      <g>
        <path d="M162.23 157C205.61 157 237.09 141.45 237.09 120C237.09 98.55 205.61 83 162.23 83C134.29 83 106.87 96.53 88.77 107.87C86.7227 109.158 85.0354 110.943 83.866 113.06C82.6965 115.177 82.0831 117.556 82.0831 119.975C82.0831 122.394 82.6965 124.773 83.866 126.89C85.0354 129.007 86.7227 130.792 88.77 132.08C106.86 143.41 134.29 156.95 162.23 156.95" fill="#068E4D"/>
        <path d="M162.23 157C205.61 157 237.09 141.45 237.09 120C237.09 98.55 205.61 83 162.23 83C134.29 83 106.87 96.53 88.77 107.87C86.7227 109.158 85.0354 110.943 83.866 113.06C82.6965 115.177 82.0831 117.556 82.0831 119.975C82.0831 122.394 82.6965 124.773 83.866 126.89C85.0354 129.007 86.7227 130.792 88.77 132.08C106.86 143.46 134.29 157 162.23 157Z" stroke="white" stroke-width="2"/>
        <path d="M162.23 116.01C134 116.01 109 116.01 89.42 116.01C85.47 117.01 83.42 118.67 83.34 120.35C83.2584 118.079 83.7764 115.828 84.8421 113.821C85.9077 111.814 87.4832 110.124 89.41 108.92C106.15 98.42 133.99 84.24 162.22 84.24C207.03 84.24 235.86 100.24 235.86 119.99C235.86 120.11 235.86 120.23 235.86 120.36C235.49 112.41 207.5 116.01 162.23 116.01Z" fill="#36E69A"/>
        <path d="M89.41 125.04C106.15 129.31 133.99 135.04 162.22 135.04C206.36 135.04 234.97 128.72 235.82 120.86C234.96 140.2 206.37 155.72 162.22 155.72C133.99 155.72 106.15 141.53 89.41 131.04C87.6701 129.945 86.2175 128.45 85.1737 126.679C84.1299 124.908 83.5251 122.913 83.41 120.86C83.67 122.47 85.67 124.04 89.41 125" fill="#068E4D"/>
      </g>
      <g>
        <path d="M88.99 115.38C105.73 111.11 133.57 105.38 161.8 105.38C206.33 105.38 235.06 111.81 235.41 119.76C235.41 119.93 235.41 120.1 235.41 120.27C234.56 128.13 205.96 134.44 161.81 134.44C133.58 134.44 105.74 128.68 89 124.44C85.21 123.44 83.21 121.91 83 120.31V119.8C83.13 118.11 85.15 116.44 89.1 115.43" fill="#25B774">
          <animate
            attributeName="d"
            values="
                        M88.99 115.38C105.73 111.11 133.57 105.38 161.8 105.38C206.33 105.38 235.06 111.81 235.41 119.76C235.41 119.93 235.41 120.1 235.41 120.27C234.56 128.13 205.96 134.44 161.81 134.44C133.58 134.44 105.74 128.68 89 124.44C85.21 123.44 83.21 121.91 83 120.31V119.8C83.13 118.11 85.15 116.44 89.1 115.43;
                        M88.99 115.38C108.5 112.5 135.27 112.5 163.5 112.5C208.03 112.5 235.06 111.81 235.41 119.76C235.41 119.93 235.41 120.1 235.41 120.27C234.56 128.13 206.65 143.5 162.5 143.5C134.27 143.5 103 134.5 89 124.44C85.21 123.44 83.21 121.91 83 120.31V119.8C83.13 118.11 85.15 116.44 89.1 115.43;
                        M88.99 115.38C104 106.5 133.58 100 161.81 100C206.34 100 235.06 111.81 235.41 119.76C235.41 119.93 235.41 120.1 235.41 120.27C234.56 128.13 205.15 127.5 161 127.5C132.77 127.5 106 127 89 124.44C85.21 123.44 83.21 121.91 83 120.31V119.8C83.13 118.11 85.15 116.44 89.1 115.43;
                        M88.99 115.38C105.73 111.11 133.57 105.38 161.8 105.38C206.33 105.38 235.06 111.81 235.41 119.76C235.41 119.93 235.41 120.1 235.41 120.27C234.56 128.13 205.96 134.44 161.81 134.44C133.58 134.44 105.74 128.68 89 124.44C85.21 123.44 83.21 121.91 83 120.31V119.8C83.13 118.11 85.15 116.44 89.1 115.43;"
            keyTimes="0; 0.25; 0.75; 1"
            dur="2s"
            repeatCount="indefinite"
          />
        </path>
      </g>
      <g id="l-front">
        <animateTransform
          attributeName="transform"
          type="translate"
          values="0,0; 0,3; 0,-3; 0,0"
          keyTimes="0; 0.25; 0.75; 1"
          dur="2s"
          repeatCount="indefinite"
        />
        <path d="M80.46 103.26H89.62C90.0529 103.26 90.4815 103.345 90.8813 103.511C91.2812 103.677 91.6443 103.921 91.9499 104.227C92.2556 104.534 92.4977 104.898 92.6624 105.298C92.8272 105.698 92.9113 106.127 92.91 106.56V112.27C92.9113 112.703 92.8272 113.132 92.6624 113.532C92.4977 113.932 92.2556 114.296 91.9499 114.603C91.6443 114.909 91.2812 115.153 90.8813 115.319C90.4815 115.485 90.0529 115.57 89.62 115.57H72.8C72.4499 115.57 72.1142 115.431 71.8666 115.183C71.6191 114.936 71.48 114.6 71.48 114.25V112.25C71.48 109.863 72.4282 107.574 74.116 105.886C75.8039 104.198 78.0931 103.25 80.48 103.25" fill="#068E4D"/>
        <path d="M80.46 103.26H89.62C90.0529 103.26 90.4815 103.345 90.8813 103.511C91.2812 103.677 91.6443 103.921 91.9499 104.227C92.2556 104.534 92.4977 104.898 92.6624 105.298C92.8272 105.698 92.9113 106.127 92.91 106.56V112.27C92.9113 112.703 92.8272 113.132 92.6624 113.532C92.4977 113.932 92.2556 114.296 91.9499 114.603C91.6443 114.909 91.2812 115.153 90.8813 115.319C90.4815 115.485 90.0529 115.57 89.62 115.57H72.8C72.4499 115.57 72.1142 115.431 71.8666 115.183C71.6191 114.936 71.48 114.6 71.48 114.25V112.25C71.4826 109.868 72.4293 107.585 74.1125 105.9C75.7957 104.214 78.0783 103.265 80.46 103.26V103.26Z" stroke="white" stroke-width="2" stroke-linecap="round" stroke-linejoin="round"/>
        <path d="M80.46 137.31H89.62C90.0529 137.31 90.4815 137.225 90.8813 137.059C91.2812 136.893 91.6443 136.649 91.9499 136.343C92.2556 136.036 92.4977 135.672 92.6624 135.272C92.8272 134.872 92.9113 134.443 92.91 134.01V128.3C92.9113 127.867 92.8272 127.438 92.6624 127.038C92.4977 126.638 92.2556 126.274 91.9499 125.967C91.6443 125.661 91.2812 125.417 90.8813 125.251C90.4815 125.085 90.0529 125 89.62 125H72.8C72.4499 125 72.1142 125.139 71.8666 125.387C71.6191 125.634 71.48 125.97 71.48 126.32V128.32C71.48 130.707 72.4282 132.996 74.116 134.684C75.8039 136.372 78.0931 137.32 80.48 137.32" fill="#068E4D"/>
        <path d="M80.46 137.31H89.62C90.0529 137.31 90.4815 137.225 90.8813 137.059C91.2812 136.893 91.6443 136.649 91.9499 136.343C92.2556 136.036 92.4977 135.672 92.6624 135.272C92.8272 134.872 92.9113 134.443 92.91 134.01V128.3C92.9113 127.867 92.8272 127.438 92.6624 127.038C92.4977 126.638 92.2556 126.274 91.9499 125.967C91.6443 125.661 91.2812 125.417 90.8813 125.251C90.4815 125.085 90.0529 125 89.62 125H72.8C72.4499 125 72.1142 125.139 71.8666 125.387C71.6191 125.634 71.48 125.97 71.48 126.32V128.32C71.4826 130.702 72.4293 132.985 74.1125 134.67C75.7957 136.356 78.0783 137.305 80.46 137.31V137.31Z" stroke="white" stroke-width="2" stroke-linecap="round" stroke-linejoin="round"/>
      </g>
      <g id="mountains" transform="translate(30.000000, 206.000000)" stroke="#FFFFFF" stroke-linecap="round" stroke-width="2">
        <path d="M217.16,41.8076518 L172.1,41.8076518 L140.02,10.5076518 C139.315606,9.91232203 138.284394,9.91232203 137.58,10.5076518 L127.38,20.7376518 C126.734003,21.2962293 125.775997,21.2962293 125.13,20.7376518 L106.13,0.56765178 C105.23526,-0.18921726 103.92474,-0.18921726 103.03,0.56765178 L76.61,26.2076518 C75.9656223,26.7705612 75.0043777,26.7705612 74.36,26.2076518 L71.73,23.2876518 C71.0763737,22.6889608 70.0736263,22.6889608 69.42,23.2876518 L52.0730792,41.4276518 L8,41.9276518">
          <animate
            attributeName="d"
            from="M217.16,41.8076518 L172.1,41.8076518 L140.02,10.5076518 C139.315606,9.91232203 138.284394,9.91232203 137.58,10.5076518 L127.38,20.7376518 C126.734003,21.2962293 125.775997,21.2962293 125.13,20.7376518 L106.13,0.56765178 C105.23526,-0.18921726 103.92474,-0.18921726 103.03,0.56765178 L76.61,26.2076518 C75.9656223,26.7705612 75.0043777,26.7705612 74.36,26.2076518 L71.73,23.2876518 C71.0763737,22.6889608 70.0736263,22.6889608 69.42,23.2876518 L52.0730792,41.4276518 L8,41.9276518"
            to="M217.16,41.8076518 L172.1,41.8076518 L140.02,41.8076518 C139.315606,41.8076518 138.284394,41.8076518 137.58,41.8076518 L127.38,41.8076518 C126.734003,41.8076518 125.775997,41.8076518 125.13,41.8076518 L106.13,41.8076518 C105.23526,41.8076518 103.92474,41.8076518 103.03,41.8076518 L76.61,41.8076518 C75.9656223,41.8076518 75.0043777,41.8076518 74.36,41.8076518 L71.73,41.8076518 C71.0763737,41.8076518 70.0736263,41.8076518 69.42,41.8076518 L52.0730792,41.8076518 L8,41.8076518"
            dur="0.4s"
            fill="freeze"
            begin="transformCloud.end - 1s"
          />
        </path>
      </g>
      <animate
        attributeName="opacity"
        from="1"
        to="0"
        dur="0.4s"
        begin="transformCloud.end - 1s"
        fill="freeze"
        id="fade-out-award"
      />
    </g>
    <g id="small-window">
      <path d="M6.48 1.8H4.42999C3.51799 1.805 2.64601 2.17099 2.00301 2.81799C1.36101 3.46399 1 4.338 1 5.25V8.17C1 9.082 1.36101 9.956 2.00301 10.602C2.64601 11.249 3.51799 11.615 4.42999 11.62H6.48C7.392 11.615 8.264 11.249 8.907 10.602C9.549 9.956 9.91 9.082 9.91 8.17V5.25C9.911 4.798 9.82399 4.351 9.65199 3.933C9.47999 3.515 9.228 3.135 8.91 2.815C8.591 2.494 8.21301 2.23999 7.79601 2.06599C7.37901 1.89199 6.932 1.801 6.48 1.8Z" stroke="white" stroke-width="2" stroke-linecap="round" stroke-linejoin="round" transform="translate(154 160)">
        <animateTransform
          attributeName="transform"
          type="translate"
          from="154 160"
          to="184 70"
          dur="0.2s"
          fill="freeze"
          begin="transformCloud.end - 1s"
        />
        <animate
          attributeName="d"
          from="M6.48 1.8H4.42999C3.51799 1.805 2.64601 2.17099 2.00301 2.81799C1.36101 3.46399 1 4.338 1 5.25V8.17C1 9.082 1.36101 9.956 2.00301 10.602C2.64601 11.249 3.51799 11.615 4.42999 11.62H6.48C7.392 11.615 8.264 11.249 8.907 10.602C9.549 9.956 9.91 9.082 9.91 8.17V5.25C9.911 4.798 9.82399 4.351 9.65199 3.933C9.47999 3.515 9.228 3.135 8.91 2.815C8.591 2.494 8.21301 2.23999 7.79601 2.06599C7.37901 1.89199 6.932 1.801 6.48 1.8Z"
          to="M33.597 1H21.4028C15.9779 1.03768 9.3248 2.62444 5.5 7.5C1.68115 12.368 1 20.1255 1 26.998V49.002C1 55.8746 1.68115 63.132 5.5 68C9.3248 72.8756 15.9779 74.9623 21.4028 75H33.597C39.0219 74.9623 45.6752 72.8756 49.5 68C53.3189 63.132 53.9999 55.8746 53.9999 49.002V26.998C54.0059 23.5919 54.0231 17.6499 53 14.5C51.9769 11.3501 51.3916 9.91141 49.5 7.5C47.6025 5.08106 44.9805 3.8112 42.5 2.5C40.0195 1.1888 36.2857 1.00754 33.597 1Z"
          dur="0.2s"
          fill="freeze"
          id="morfSmallWindow"
          begin="transformCloud.end - 1s"
        />
        <animate
          attributeName="opacity"
          from="1"
          to="0"
          dur="0.2s"
          fill="freeze"
          begin="morfSmallWindow.end - 0.1s"
        />
      </path>
      <animateTransform
        attributeName="transform"
        type="scale"
        values="1 1; 1 0.99; 1 1.01; 1 1"
        keyTimes="0; 0.25; 0.75; 1"
        dur="2s"
        repeatCount="indefinite"
      />
    </g>
  </g>
  <g id="award-to" transform="translate(0 24)">
    <defs>
      <clipPath id="window" transform="translate(0 -70)">
        <path d="M275,225.43H257.87a17.6,17.6,0,0,1-17.52-17.58V170a17.6,17.6,0,0,1,17.52-17.58H275A17.6,17.6,0,0,1,292.51,170v37.83A17.61,17.61,0,0,1,275,225.43Z" transform="translate(-54.48 -104.9)"/>
      </clipPath>
    </defs>
    <g id="room">
      <g id="skiing" transform="translate(-270 0)">
        <path d="M91.14,327.79a2.2,2.2,0,0,1-2-2.36l13.66-193.17c1.1-15.49-4.8-21.92-8.75-24.47a1.35,1.35,0,0,1,.53-2.45C103,104,122.18,104,120,134.19L106.43,326.67a2.2,2.2,0,0,1-2.35,2Z" transform="translate(-54.48 -104.9)" fill="#fff"/>
        <path d="M124.5,328.17a2.2,2.2,0,0,1-2.17-2.23l2.24-193.63c0.19-15.53-6.07-21.61-10.16-23.91a1.35,1.35,0,0,1,.39-2.47c8.36-1.9,27.49-3,27.15,27.28l-2.25,192.93a2.2,2.2,0,0,1-2.22,2.18Z" transform="translate(-54.48 -104.9)" fill="#fff"/>
        <animateTransform
          attributeName="transform"
          type="translate"
          from="-270 0"
          to="0 0"
          dur="0.4s"
          fill="freeze"
          begin="morfSmallWindow.end + 0.2s"
          id="skiingTransform"
        />
      </g>
      <g id="chair" transform="translate(-270 0)">
        <path d="M257.5,259.82H196.76V245.63h55.09a9.92,9.92,0,0,1,9.9,9.93,4.26,4.26,0,0,1-4.25,4.25" transform="translate(-54.48 -104.9)" fill="#a67ee5"/>
        <path d="M257.5,259.82H196.76V245.63h55.09a9.92,9.92,0,0,1,9.9,9.93A4.26,4.26,0,0,1,257.5,259.82Z" transform="translate(-54.48 -104.9)" fill="none" stroke="#fff" stroke-miterlimit="10" stroke-width="2"/>
        <polygon points="130.99 223.41 117.02 223.41 110.71 181.82 124.68 181.82 130.99 223.41" fill="#a67ee5"/>
        <polygon points="130.99 223.41 117.02 223.41 110.71 181.82 124.68 181.82 130.99 223.41" fill="none" stroke="#fff" stroke-miterlimit="10" stroke-width="2"/>
        <polygon points="180.54 223.41 166.58 223.41 160.28 181.82 174.24 181.82 180.54 223.41" fill="#a67ee5"/>
        <polygon points="180.54 223.41 166.58 223.41 160.28 181.82 174.24 181.82 180.54 223.41" fill="none" stroke="#fff" stroke-miterlimit="10" stroke-width="2"/>
        <path d="M281.33,272.45H225.44a5.59,5.59,0,0,1-5.53-4.77l-10.86-72.24a17.71,17.71,0,0,0-12.49-31.31H141.48L141.16,267l15.77,23.35,47.19,8.39a12.3,12.3,0,0,0,4.22.75h73a13.53,13.53,0,0,0,0-27.06" transform="translate(-54.48 -104.9)" fill="#a67ee5"/>
        <path d="M281.33,272.45H225.44a5.59,5.59,0,0,1-5.53-4.77l-10.86-72.24a17.71,17.71,0,0,0-12.49-31.31H141.48L141.16,267l15.77,23.35,47.19,8.39a12.3,12.3,0,0,0,4.22.75h73A13.53,13.53,0,0,0,281.33,272.45Z" transform="translate(-54.48 -104.9)" fill="none" stroke="#fff" stroke-miterlimit="10" stroke-width="2"/>
        <path d="M162.42,267.69l-10.86-72.24a17.71,17.71,0,1,0-29-13.61,18,18,0,0,0,.79,5.25L138.65,289a12.36,12.36,0,0,0,12.21,10.54h73a13.53,13.53,0,0,0,0-27.05H167.95a5.62,5.62,0,0,1-5.53-4.78" transform="translate(-54.48 -104.9)" fill="#a67ee5"/>
        <path d="M162.42,267.69l-10.86-72.24a17.71,17.71,0,1,0-29-13.61,18,18,0,0,0,.79,5.25L138.65,289a12.36,12.36,0,0,0,12.21,10.54h73a13.53,13.53,0,0,0,0-27.05H167.95A5.62,5.62,0,0,1,162.42,267.69Z" transform="translate(-54.48 -104.9)" fill="none" stroke="#fff" stroke-miterlimit="10" stroke-width="2"/>
        <path d="M206.26,259.82h-72l-2.13-14.19H200.6a9.92,9.92,0,0,1,9.9,9.93,4.26,4.26,0,0,1-4.25,4.25" transform="translate(-54.48 -104.9)" fill="#a67ee5"/>
        <path d="M206.26,259.82h-72l-2.13-14.19H200.6a9.92,9.92,0,0,1,9.9,9.93A4.26,4.26,0,0,1,206.26,259.82Z" transform="translate(-54.48 -104.9)" fill="none" stroke="#fff" stroke-miterlimit="10" stroke-width="2"/>
        <line x1="97.08" y1="90.54" x2="154.57" y2="90.54" fill="none" stroke="#fff" stroke-linecap="round" stroke-miterlimit="10" stroke-width="2"/>
        <animateTransform
          attributeName="transform"
          type="translate"
          from="-270 0"
          to="0 0"
          dur="0.4s"
          fill="freeze"
          begin="morfSmallWindow.end"
        />
      </g>
      <g id="flower" transform="translate(-270 0)">
        <path d="M79.18,194A131,131,0,0,1,94.77,220.9a255,255,0,0,1-20.08-23.55,259,259,0,0,1-17.07-25.88A131.72,131.72,0,0,1,79.18,194" transform="translate(-54.48 -104.9)" fill="#36e69a"/>
        <path d="M80.94,214.39a127.19,127.19,0,0,1,22.8,20.49A242.09,242.09,0,0,1,77.9,219.17a235.86,235.86,0,0,1-23.42-18.7,119.82,119.82,0,0,1,26.46,13.92" transform="translate(-54.48 -104.9)" fill="#36e69a"/>
        <path d="M93.66,205.48a258.38,258.38,0,0,0,10.08,29.39,125.63,125.63,0,0,0-4.5-30.52,135.9,135.9,0,0,0-12.06-29.44,260.33,260.33,0,0,0,6.47,30.57" transform="translate(-54.48 -104.9)" fill="#36e69a"/>
        <path d="M107.32,213.52a250.14,250.14,0,0,0,2.06,30.67,119.93,119.93,0,0,0,3.76-30.05,131.24,131.24,0,0,0-4-31.36,238.1,238.1,0,0,0-1.87,30.74" transform="translate(-54.48 -104.9)" fill="#25b774"/>
        <path d="M83.08,229.56a121.93,121.93,0,0,1,26.29,14.64A225.91,225.91,0,0,1,81.21,235a228.11,228.11,0,0,1-26.37-12.69,113.61,113.61,0,0,1,28.25,7.29" transform="translate(-54.48 -104.9)" fill="#25b774"/>
        <path d="M88.06,243.83A118.11,118.11,0,0,1,115.62,255a211,211,0,0,1-28.78-5.6,220.87,220.87,0,0,1-27.42-9.33,114,114,0,0,1,28.65,3.73" transform="translate(-54.48 -104.9)" fill="#25b774"/>
        <path d="M118.71,224.79a238,238,0,0,0-3.1,30.25,117.11,117.11,0,0,0,8.82-28.54,127.44,127.44,0,0,0,1.42-31.19,213.92,213.92,0,0,0-7.15,29.48" transform="translate(-54.48 -104.9)" fill="#25b774"/>
        <path d="M98.86,262a118.24,118.24,0,0,1,27.07,12.34,212.3,212.3,0,0,1-28.53-6.79,220.78,220.78,0,0,1-27-10.45A114.06,114.06,0,0,1,98.86,262" transform="translate(-54.48 -104.9)" fill="#068e4d"/>
        <path d="M130.27,244.29a236.56,236.56,0,0,0-4.34,30.1,116.94,116.94,0,0,0,10-28.16,127.42,127.42,0,0,0,2.71-31.1,214.43,214.43,0,0,0-8.36,29.16" transform="translate(-54.48 -104.9)" fill="#068e4d"/>
        <path d="M108.9,280.69a118.21,118.21,0,0,1,26.54,13.47,213.62,213.62,0,0,1-28.23-8,221.65,221.65,0,0,1-26.55-11.57,113.82,113.82,0,0,1,28.24,6.08" transform="translate(-54.48 -104.9)" fill="#068e4d"/>
        <path d="M141,264.26a236.09,236.09,0,0,0-5.58,29.9,117.46,117.46,0,0,0,11.15-27.73,127.2,127.2,0,0,0,4-31A214.24,214.24,0,0,0,141,264.26" transform="translate(-54.48 -104.9)" fill="#068e4d"/>
        <path d="M92.62,217.67A529.26,529.26,0,0,1,149.48,328" transform="translate(-54.48 -104.9)" fill="none" stroke="#36e69a" stroke-linecap="round" stroke-linejoin="round" stroke-width="2"/>
        <animateTransform
          attributeName="transform"
          type="translate"
          from="-270 0"
          to="0 0"
          dur="0.4s"
          fill="freeze"
          id="translateFlower"
          begin="morfSmallWindow.end + 0.1s"
        />
        <animateTransform
          attributeName="transform"
          type="rotate"
          values="0 76 224; 4 76 224; 0 76 224"
          keyTimes="0; 0.6; 1"
          dur="0.4s"
          fill="freeze"
          id="rotateFlower"
          begin="translateFlower.end"
        />
        <animateTransform
          attributeName="transform"
          type="rotate"
          values="0 76 224; 4 76 224; 0 76 224"
          keyTimes="0; 0.6; 1"
          dur="1s"
          repeatCount="indefinite"
          fill="freeze"
          begin="rotateFlower.end + 0.4s"
        />
      </g>
      <line x1="17.55" y1="224.1" x2="241.04" y2="224.1" fill="none" stroke="#fff" stroke-linecap="round" stroke-miterlimit="10" stroke-width="2"/>
    </g>
    <g id="windows" opacity="0">
      <g id="room-clouds" transform="translate(0 70)"  clip-path="url(#window)">
        <g transform="scale(0.5 0.5)">
          <g>
            <line x1="28.18" y1="38.34" x2="91.09" y2="38.34" fill="none" stroke="#fff" stroke-linecap="round" stroke-miterlimit="10" stroke-width="2"/>
            <path d="M41.77,97.54H77.06a12.4,12.4,0,1,1,24.8,0h17.93" transform="translate(-40.77 -69.46)" fill="none" stroke="#fff" stroke-linecap="round" stroke-miterlimit="10" stroke-width="2" />
            <line x1="218.19" y1="23.72" x2="257.97" y2="23.72" fill="none" stroke="#fff" stroke-linecap="round" stroke-miterlimit="10" stroke-width="2"/>
            <path d="M278.75,82.91H251.39a12.4,12.4,0,1,0-24.8,0H208.65" transform="translate(-40.77 -69.46)" fill="none" stroke="#fff" stroke-linecap="round" stroke-miterlimit="10" stroke-width="2"/>
            <line x1="246.24" y1="13.45" x2="268.43" y2="13.45" fill="none" stroke="#fff" stroke-linecap="round" stroke-miterlimit="10" stroke-width="2"/>
            <animateTransform
              attributeName="transform"
              type="translate"
              values="470 0; 0 0"
              dur="4s"
              id="move-room-cloud"
              repeatCount="indefinite"
            />
          </g>
        </g>
      </g>
      <path d="M275,225.43H257.87a17.6,17.6,0,0,1-17.52-17.58V170a17.6,17.6,0,0,1,17.52-17.58H275A17.6,17.6,0,0,1,292.51,170v37.83A17.61,17.61,0,0,1,275,225.43Z" transform="translate(-54.48 -104.9)" fill="none" stroke="#fff" stroke-width="2"/>
      <animate
        attributeName="opacity"
        from="0"
        to="1"
        dur="0.1s"
        fill="freeze"
        begin="morfSmallWindow.end - 0.1s"
      />
    </g>
  </g>
</svg>
