<svg width="320" height="276" viewBox="0 0 324 275" fill="none" xmlns="http://www.w3.org/2000/svg">
  <g opacity="0">
    <animate
      attributeName="opacity"
      from="0"
      to="1"
      dur="0.4s"
      begin="4.7s"
      fill="freeze"
      id="fadeSecondPrize"
    />
    <g id="first-flower">
      <path d="M249.34 152.82C249.665 152.58 250.054 152.444 250.458 152.43C250.861 152.415 251.26 152.524 251.601 152.74C251.942 152.956 252.209 153.271 252.368 153.642C252.526 154.013 252.569 154.424 252.49 154.82C251.49 161.82 250.42 175.15 257.34 174.22C262.28 173.56 240.69 142.69 276.66 136.06C277.032 135.982 277.418 136.011 277.773 136.145C278.129 136.278 278.439 136.51 278.667 136.813C278.896 137.116 279.034 137.478 279.064 137.856C279.095 138.235 279.017 138.614 278.84 138.95C277.52 141.69 276.01 145.56 276.11 148.85C276.118 149.283 276.266 149.702 276.533 150.044C276.8 150.386 277.171 150.632 277.589 150.744C278.008 150.857 278.452 150.831 278.854 150.67C279.256 150.508 279.595 150.221 279.82 149.85C283.92 143.7 294.92 131.99 316.41 139.15C316.753 139.261 317.059 139.463 317.297 139.734C317.535 140.005 317.695 140.335 317.76 140.69C318.69 145.49 321.89 163.93 317.47 169.41C312.38 175.72 302.47 173.55 301.29 179.66C299.99 186.57 308.8 184.48 314.71 179.44C315.008 179.177 315.377 179.008 315.77 178.956C316.164 178.903 316.565 178.969 316.921 179.145C317.277 179.321 317.573 179.599 317.77 179.943C317.968 180.288 318.058 180.684 318.03 181.08C317.78 186.53 315.85 195.08 306.91 199.77C293.13 206.98 283.43 192.77 281.72 195.89C279.13 200.55 289.66 204.36 295.5 206.07C295.871 206.168 296.206 206.371 296.465 206.654C296.725 206.938 296.896 207.29 296.961 207.669C297.025 208.047 296.979 208.436 296.828 208.789C296.677 209.143 296.428 209.445 296.11 209.66C285.59 217.4 266.98 219.94 259.11 204.25C250.81 187.66 246.18 191.76 240.92 183.87C235.21 175.3 236.59 161.33 249.3 152.82H249.34ZM278.7 185.29C279.2 188.02 283.9 188.8 287.05 188.23C290.2 187.66 295.52 184.4 295.05 181.67C294.58 178.94 288.43 177.77 285.27 178.34C282.11 178.91 278.22 182.56 278.72 185.29" fill="#E81A5A">
        <animateTransform
          attributeName="transform"
          type="rotate"
          values="0 260 187; -4 260 187; 4 260 187; 0 260 187"
          keyTimes="0; 0.25; 0.75; 1"
          dur="2s"
          repeatCount="indefinite"
        />
      </path>
      <path d="M248.87 273.88C248.87 273.88 243.96 203.61 254.41 193.16" stroke="#E81A5A" stroke-width="2" stroke-miterlimit="10"/>
    </g>
    <g id="airs" opacity="0" transform="translate(100 0)">
      <animate
        attributeName="opacity"
        values="0; 1; 1"
        keyTimes="0; 0.8; 1"
        dur="0.3s"
        begin="fadeSecondPrize.end - 0.2s"
        fill="freeze"
        id="fadeInAir"
      />
      <animateTransform
        attributeName="transform"
        type="translate"
        from="100 0"
        to="0 0"
        dur="0.3s"
        fill="freeze"
        begin="fadeSecondPrize.end - 0.2s"
      />
      <animate
        attributeName="opacity"
        from="1"
        to="0"
        dur="0.2s"
        begin="moveCase.begin + 0.5s"
        fill="freeze"
        id="fadeInAir"
      />
      <animateTransform
        attributeName="transform"
        type="translate"
        from="0 0"
        to="0 -40"
        dur="0.3s"
        fill="freeze"
        begin="moveCase.begin + 0.5s"
      />
      <path d="M51.31 23.72H91.08" stroke="white" stroke-width="2" stroke-miterlimit="10" stroke-linecap="round"/>
      <path d="M71.09 13.45H43.73C43.73 10.1613 42.4236 7.00732 40.0981 4.68187C37.7727 2.35641 34.6187 1.04999 31.33 1.04999C28.0413 1.04999 24.8873 2.35641 22.5619 4.68187C20.2364 7.00732 18.93 10.1613 18.93 13.45H1" stroke="white" stroke-width="2" stroke-miterlimit="10" stroke-linecap="round"/>
      <path d="M79.35 13.45H101.55" stroke="white" stroke-width="2" stroke-miterlimit="10" stroke-linecap="round"/>
      <path d="M258 91.28H297.78" stroke="white" stroke-width="2" stroke-miterlimit="10" stroke-linecap="round"/>
      <path d="M286.05 81H308.25" stroke="white" stroke-width="2" stroke-miterlimit="10" stroke-linecap="round"/>
      <path d="M221.64 65H202.19C202.068 56.8962 199.175 49.0784 193.994 42.8464C188.812 36.6144 181.654 32.3436 173.708 30.744C165.763 29.1444 157.51 30.3125 150.32 34.0539C143.131 37.7954 137.439 43.8849 134.19 51.31C130.247 49.1215 125.809 47.9818 121.3 48C115.938 48.0179 110.705 49.6489 106.282 52.6807C101.859 55.7126 98.4506 60.0051 96.5 65H81.35C78.5652 65 75.8945 66.1062 73.9254 68.0754C71.9563 70.0445 70.85 72.7152 70.85 75.5C70.85 78.2848 71.9563 80.9555 73.9254 82.9246C75.8945 84.8937 78.5652 86 81.35 86H221.65C224.435 86 227.105 84.8937 229.075 82.9246C231.044 80.9555 232.15 78.2848 232.15 75.5C232.15 72.7152 231.044 70.0445 229.075 68.0754C227.105 66.1062 224.435 65 221.65 65" fill="white"/>
    </g>
    <g transform="translate(-140 -30)">
      <animateTransform
        attributeName="transform"
        type="translate"
        values="-60 -20; 0 0; -140 -30"
        keyTimes="0; 0.7; 1"
        dur="1.6s"
        fill="freeze"
        begin="fadeInAir.end + 0.2s"
      />
      <g id="case" transform="scale(0 0)">
        <animateMotion
          dur="1.6s"
          fill="freeze"
          path="M210,46 C191.123017,30.0954376 178.474401,22.3354376 172.054152,22.72 C139.5875,24.6646992 58.5772053,19.8961907 31.5049859,37.9511828 C21.5331177,44.6016167 8.41138468,70.3443262 15.5105849,87.6442742 C26.1462877,113.562279 86.4780658,101.64122 87.0377659,101.479448 C96.6418879,98.708345 142.089996,27.6199991 142.089996,27.6199991"
          begin="fadeInAir.end + 0.2s"
          id="moveCase"
        />
        <animateTransform
          attributeName="transform"
          type="scale"
          values="0.1 0.1; 0.15 0.15; 0.2 0.2; 0.25 0.25; 1 1"
          keyTimes="0; 0.1; 0.4; 0.7; 1"
          dur="1.6s"
          fill="freeze"
          begin="fadeInAir.end + 0.2s"
        />
        <animateTransform
          attributeName="transform"
          type="rotate"
          values="-30; 0; 20; -10; 0"
          keyTimes="0; 0.1; 0.4; 0.6; 1"
          dur="1.6s"
          additive="sum"
          fill="freeze"
          begin="fadeInAir.end + 0.2"
        />
        <path d="M237.76 275.09C238.695 275.087 239.592 274.715 240.253 274.053C240.915 273.392 241.287 272.495 241.29 271.56V266.49C241.29 265.554 240.918 264.656 240.256 263.994C239.594 263.332 238.696 262.96 237.76 262.96C236.824 262.96 235.926 263.332 235.264 263.994C234.602 264.656 234.23 265.554 234.23 266.49V271.56C234.235 272.495 234.609 273.389 235.27 274.05C235.931 274.711 236.825 275.085 237.76 275.09" fill="#A67EE5"/>
        <path d="M237.76 275.09C238.695 275.087 239.592 274.715 240.253 274.053C240.915 273.392 241.287 272.495 241.29 271.56V266.49C241.29 265.554 240.918 264.656 240.256 263.994C239.594 263.332 238.696 262.96 237.76 262.96C236.824 262.96 235.926 263.332 235.264 263.994C234.602 264.656 234.23 265.554 234.23 266.49V271.56C234.235 272.495 234.609 273.389 235.27 274.05C235.931 274.711 236.825 275.085 237.76 275.09V275.09Z" stroke="white" stroke-width="2" stroke-miterlimit="10"/>
        <path d="M162.22 275.09C163.155 275.087 164.052 274.715 164.713 274.053C165.375 273.392 165.747 272.495 165.75 271.56V266.49C165.75 265.554 165.378 264.656 164.716 263.994C164.054 263.332 163.156 262.96 162.22 262.96C161.284 262.96 160.386 263.332 159.724 263.994C159.062 264.656 158.69 265.554 158.69 266.49V271.56C158.693 272.495 159.065 273.392 159.727 274.053C160.388 274.715 161.285 275.087 162.22 275.09" fill="#A67EE5"/>
        <path d="M162.22 275.09C163.155 275.087 164.052 274.715 164.713 274.053C165.375 273.392 165.747 272.495 165.75 271.56V266.49C165.75 265.554 165.378 264.656 164.716 263.994C164.054 263.332 163.156 262.96 162.22 262.96C161.284 262.96 160.386 263.332 159.724 263.994C159.062 264.656 158.69 265.554 158.69 266.49V271.56C158.693 272.495 159.065 273.392 159.727 274.053C160.388 274.715 161.285 275.087 162.22 275.09V275.09Z" stroke="white" stroke-width="2" stroke-miterlimit="10"/>
        <path d="M156.79 266.5H231.29C234.298 266.492 237.18 265.294 239.307 263.167C241.434 261.04 242.632 258.158 242.64 255.15V189.07C242.632 186.062 241.434 183.18 239.307 181.053C237.18 178.926 234.298 177.728 231.29 177.72H156.79C153.782 177.728 150.9 178.926 148.773 181.053C146.646 183.18 145.448 186.062 145.44 189.07V255.15C145.448 258.158 146.646 261.04 148.773 263.167C150.9 265.294 153.782 266.492 156.79 266.5" fill="#A67EE5"/>
        <path d="M231.29 177.73H156.79C150.522 177.73 145.44 182.812 145.44 189.08V255.16C145.44 261.428 150.522 266.51 156.79 266.51H231.29C237.558 266.51 242.64 261.428 242.64 255.16V189.08C242.64 182.812 237.558 177.73 231.29 177.73Z" stroke="white" stroke-width="2" stroke-miterlimit="10"/>
        <path d="M185.13 165.36H217.53C218.611 165.363 219.648 165.793 220.412 166.558C221.177 167.322 221.607 168.359 221.61 169.44V185.44C221.61 185.756 221.485 186.058 221.261 186.281C221.038 186.505 220.736 186.63 220.42 186.63H217.72C217.404 186.63 217.102 186.505 216.879 186.281C216.655 186.058 216.53 185.756 216.53 185.44V171.07C216.53 170.733 216.396 170.41 216.158 170.172C215.92 169.934 215.597 169.8 215.26 169.8H187.4C187.063 169.8 186.74 169.934 186.502 170.172C186.264 170.41 186.13 170.733 186.13 171.07V185.45C186.13 185.766 186.005 186.068 185.781 186.291C185.558 186.515 185.256 186.64 184.94 186.64H182.24C181.924 186.64 181.622 186.515 181.399 186.291C181.175 186.068 181.05 185.766 181.05 185.45V169.45C181.055 168.368 181.488 167.332 182.254 166.567C183.021 165.803 184.058 165.373 185.14 165.37" fill="#A67EE5"/>
        <path d="M185.13 165.36H217.53C218.611 165.363 219.648 165.793 220.412 166.558C221.177 167.322 221.607 168.359 221.61 169.44V185.44C221.61 185.756 221.485 186.058 221.261 186.281C221.038 186.505 220.736 186.63 220.42 186.63H217.72C217.404 186.63 217.102 186.505 216.879 186.281C216.655 186.058 216.53 185.756 216.53 185.44V171.07C216.53 170.733 216.396 170.41 216.158 170.172C215.92 169.934 215.597 169.8 215.26 169.8H187.4C187.063 169.8 186.74 169.934 186.502 170.172C186.264 170.41 186.13 170.733 186.13 171.07V185.45C186.13 185.766 186.005 186.068 185.781 186.291C185.558 186.515 185.256 186.64 184.94 186.64H182.24C181.924 186.64 181.622 186.515 181.399 186.291C181.175 186.068 181.05 185.766 181.05 185.45V169.45C181.053 168.368 181.483 167.331 182.247 166.564C183.012 165.798 184.048 165.365 185.13 165.36Z" stroke="white" stroke-width="2" stroke-miterlimit="10"/>
        <path d="M171.21 266.5H245.71C248.718 266.492 251.6 265.294 253.727 263.167C255.854 261.04 257.052 258.158 257.06 255.15V189.07C257.052 186.062 255.854 183.18 253.727 181.053C251.6 178.926 248.718 177.728 245.71 177.72H171.21C168.204 177.731 165.324 178.93 163.2 181.057C161.075 183.183 159.878 186.064 159.87 189.07V255.15C159.881 258.157 161.08 261.038 163.206 263.164C165.332 265.29 168.213 266.489 171.22 266.5" fill="#A67EE5"/>
        <path d="M171.21 266.5H245.71C248.718 266.492 251.6 265.294 253.727 263.167C255.854 261.04 257.052 258.158 257.06 255.15V189.07C257.052 186.062 255.854 183.18 253.727 181.053C251.6 178.926 248.718 177.728 245.71 177.72H171.21C168.204 177.731 165.324 178.93 163.2 181.057C161.075 183.183 159.878 186.064 159.87 189.07V255.15C159.881 258.155 161.078 261.035 163.202 263.161C165.327 265.286 168.205 266.487 171.21 266.5V266.5Z" stroke="white" stroke-width="2" stroke-miterlimit="10"/>
        <path d="M240.1 198.64H176.84" stroke="white" stroke-width="2" stroke-miterlimit="10" stroke-linecap="round"/>
        <path d="M240.1 222.12H176.84" stroke="white" stroke-width="2" stroke-miterlimit="10" stroke-linecap="round"/>
        <path d="M240.1 245.59H176.84" stroke="white" stroke-width="2" stroke-miterlimit="10" stroke-linecap="round"/>
        <path d="M153.99 199.89H154.66V244.35H153.99C153.059 244.347 152.167 243.977 151.507 243.32C150.848 242.662 150.475 241.771 150.47 240.84V203.41C150.47 202.948 150.561 202.49 150.738 202.063C150.915 201.636 151.174 201.248 151.501 200.921C151.828 200.594 152.216 200.335 152.643 200.158C153.07 199.981 153.528 199.89 153.99 199.89" fill="#A67EE5"/>
        <path d="M153.99 199.89H154.66V244.35H153.99C153.059 244.347 152.167 243.977 151.507 243.32C150.848 242.662 150.475 241.771 150.47 240.84V203.41C150.47 202.476 150.841 201.581 151.501 200.921C152.161 200.261 153.056 199.89 153.99 199.89V199.89Z" stroke="white" stroke-width="2" stroke-miterlimit="10"/>
        <path d="M201.34 165.08L145.75 85.25" stroke="white" stroke-width="2" stroke-linecap="round" stroke-linejoin="round"/>
        <path d="M201.34 165.08L182.8 85.25" stroke="white" stroke-width="2" stroke-linecap="round" stroke-linejoin="round"/>
        <path d="M219.86 85.25L201.34 165.08" stroke="white" stroke-width="2" stroke-linecap="round" stroke-linejoin="round"/>
        <path d="M256.92 85.25L201.34 165.08" stroke="white" stroke-width="2" stroke-linecap="round" stroke-linejoin="round"/>
        <path d="M201.33 29.65C216.06 29.6606 230.184 35.5183 240.598 45.9361C251.012 56.3539 256.865 70.4797 256.87 85.21C256.87 78.45 248.57 72.96 238.34 72.96C228.11 72.96 220.03 78.31 219.82 84.96C219.82 85.04 219.82 85.13 219.82 85.22C219.82 78.46 211.52 72.97 201.29 72.97C191.06 72.97 182.75 78.46 182.75 85.22C182.75 85.13 182.75 85.05 182.75 84.96C182.53 78.32 174.33 72.96 164.23 72.96C154.13 72.96 145.71 78.45 145.71 85.21C145.709 77.9095 147.146 70.6802 149.939 63.9351C152.732 57.19 156.827 51.0613 161.989 45.899C167.151 40.7367 173.28 36.6421 180.025 33.8489C186.77 31.0557 193.999 29.6187 201.3 29.62L201.33 29.65ZM201.3 27.96C186.128 27.9865 171.586 34.0279 160.862 44.7598C150.137 55.4917 144.106 70.0382 144.09 85.21C144.09 85.428 144.133 85.6439 144.216 85.8453C144.3 86.0467 144.422 86.2297 144.576 86.3838C144.73 86.538 144.913 86.6602 145.115 86.7437C145.316 86.8271 145.532 86.87 145.75 86.87C145.968 86.87 146.184 86.8271 146.385 86.7437C146.587 86.6602 146.77 86.538 146.924 86.3838C147.078 86.2297 147.2 86.0467 147.284 85.8453C147.367 85.6439 147.41 85.428 147.41 85.21C147.41 79.37 154.98 74.62 164.28 74.62C173.39 74.62 180.96 79.28 181.14 85V85.21C181.14 85.6503 181.315 86.0725 181.626 86.3838C181.938 86.6951 182.36 86.87 182.8 86.87C183.24 86.87 183.662 86.6951 183.974 86.3838C184.285 86.0725 184.46 85.6503 184.46 85.21C184.46 79.37 192.03 74.62 201.33 74.62C210.63 74.62 218.2 79.37 218.2 85.21C218.2 85.6503 218.375 86.0725 218.686 86.3838C218.998 86.6951 219.42 86.87 219.86 86.87C220.3 86.87 220.722 86.6951 221.034 86.3838C221.345 86.0725 221.52 85.6503 221.52 85.21V85C221.7 79.27 229.26 74.61 238.38 74.61C247.68 74.61 255.25 79.36 255.25 85.2C255.25 85.6403 255.425 86.0625 255.736 86.3738C256.048 86.6851 256.47 86.86 256.91 86.86C257.35 86.86 257.772 86.6851 258.084 86.3738C258.395 86.0625 258.57 85.6403 258.57 85.2C258.557 70.0239 252.524 55.4728 241.794 44.7398C231.065 34.0068 216.516 27.9685 201.34 27.95" fill="white"/>
        <path d="M201.33 29.65C211.25 29.65 219.33 50.55 219.87 84.98C220.08 78.33 228.28 72.98 238.39 72.98C248.5 72.98 256.87 78.48 256.87 85.21C256.87 70.4666 251.013 56.3271 240.588 45.9019C230.163 35.4768 216.023 29.62 201.28 29.62" fill="#E81A5A"/>
        <path d="M201.32 29.65C186.583 29.65 172.449 35.503 162.026 45.922C151.603 56.3409 145.745 70.4727 145.74 85.21C145.74 78.45 154.04 72.96 164.26 72.96C174.48 72.96 182.56 78.31 182.78 84.96C183.3 50.53 191.39 29.64 201.31 29.64" fill="#FE6183"/>
        <path d="M201.33 29.65C191.4 29.65 183.33 50.55 182.79 84.97C182.79 85.06 182.79 85.14 182.79 85.23C182.79 78.47 191.09 72.98 201.32 72.98C211.55 72.98 219.87 78.48 219.87 85.21C219.87 85.12 219.87 85.04 219.87 84.95C219.36 50.52 211.27 29.62 201.35 29.62" fill="#F7396B"/>
      </g>
    </g>
    <path transform="translate(-280 0)" d="M133 275.1H269.66" stroke="white" stroke-width="2" stroke-miterlimit="10" stroke-linecap="round">
      <animateTransform
        attributeName="transform"
        type="translate"
        from="-280 0"
        to="0 0"
        dur="0.3s"
        fill="freeze"
        begin="fadeSecondPrize.end - 0.2s"
      />
    </path>
    <g id="second-flower">
      <animateTransform
        attributeName="transform"
        type="rotate"
        values="0 231 273; 6 231 273; -6 231 273; 0 231 273"
        keyTimes="0; 0.25; 0.75; 1"
        dur="2s"
        repeatCount="indefinite"
      />
      <path d="M308.79 229.4C309.072 229.676 309.273 230.025 309.37 230.408C309.467 230.791 309.456 231.193 309.34 231.57C308.28 235 304.76 244.42 297.24 247.91C292.1 250.29 288.91 245.21 286.32 248.68C283.73 252.15 288.42 253.68 293.24 252.99C293.656 252.922 294.084 252.977 294.469 253.149C294.854 253.32 295.181 253.601 295.408 253.956C295.636 254.311 295.755 254.726 295.75 255.147C295.744 255.569 295.616 255.98 295.38 256.33C294.122 258.319 292.394 259.968 290.349 261.131C288.303 262.294 286.002 262.936 283.65 263C272.81 263.27 271.1 251.42 269.08 252.81C266.36 254.7 270.35 259.36 273.47 262.38C273.769 262.667 273.979 263.034 274.076 263.437C274.172 263.84 274.15 264.262 274.013 264.653C273.876 265.044 273.63 265.388 273.303 265.642C272.976 265.897 272.583 266.053 272.17 266.09C263.41 266.93 252.45 262.58 252.37 251.09C252.29 238.15 248.12 239.29 247.26 232.74C246.35 225.86 251.14 217.86 261 216.05C261.397 215.978 261.805 216.018 262.18 216.166C262.555 216.314 262.881 216.563 263.122 216.887C263.362 217.211 263.507 217.595 263.54 217.997C263.574 218.398 263.494 218.801 263.31 219.16C260.9 223.89 257.31 231.76 260.49 231.72C263.95 231.72 258.91 209.14 288.92 216.46C289.282 216.549 289.615 216.731 289.886 216.987C290.157 217.243 290.357 217.565 290.467 217.921C290.577 218.278 290.592 218.657 290.512 219.021C290.432 219.385 290.259 219.722 290.01 220L289.91 220.11C289.583 220.473 289.389 220.935 289.359 221.422C289.329 221.91 289.465 222.393 289.744 222.793C290.024 223.193 290.43 223.486 290.898 223.626C291.366 223.765 291.867 223.742 292.32 223.56C295.98 222.04 301.48 222.29 308.79 229.4" fill="#FE6183"/>
      <path d="M231 273.88C231 273.88 234.48 243.77 252.7 243.77" stroke="#FE6183" stroke-width="2" stroke-miterlimit="10"/>
    </g>
  </g>
</svg>
