<svg width="260" height="253" viewBox="0 0 260 253" fill="none" xmlns="http://www.w3.org/2000/svg">
  <g opacity="0">
    <animate
      attributeName="opacity"
      values="0; 0; 1"
      keyTimes="0; 0.5; 1"
      dur="0.3s"
      begin="7.2s"
      fill="freeze"
      id="fadeThirdPrize"
    />
    <animateTransform
      attributeName="transform"
      type="translate"
      from="100 0"
      to="0 0"
      dur="0.3s"
      begin="fadeThirdPrize.begin - 0.3s"
      fill="freeze"
    />
    <g opacity="0">
      <animate
        attributeName="opacity"
        from="1"
        to="0"
        calcMode="discrete"
        begin="fadeThirdPrize.end + 0.2s"
        fill="freeze"
      />
      <g id="cap-top-open">
        <path d="M208.69 154.3C209.815 154.3 210.915 153.966 211.851 153.341C212.787 152.716 213.516 151.827 213.947 150.787C214.378 149.748 214.49 148.604 214.271 147.5C214.051 146.396 213.509 145.382 212.713 144.587C211.918 143.791 210.904 143.249 209.8 143.029C208.696 142.81 207.552 142.922 206.513 143.353C205.473 143.784 204.584 144.513 203.959 145.449C203.334 146.385 203 147.485 203 148.61C203 150.119 203.599 151.566 204.667 152.633C205.734 153.701 207.181 154.3 208.69 154.3" fill="#A67EE5"/>
        <path d="M208.69 154.3C211.833 154.3 214.38 151.752 214.38 148.61C214.38 145.467 211.833 142.92 208.69 142.92C205.548 142.92 203 145.467 203 148.61C203 151.752 205.548 154.3 208.69 154.3Z" stroke="white" stroke-width="2" stroke-miterlimit="10"/>
        <path d="M195.06 132.67H21.95C18.7847 132.67 15.7475 133.92 13.4999 136.149C11.2523 138.378 9.97637 141.405 9.95 144.57V198.19C9.95 201.638 11.3196 204.944 13.7576 207.382C16.1956 209.82 19.5022 211.19 22.95 211.19H206.95V144.57C206.924 141.415 205.656 138.397 203.421 136.17C201.187 133.943 198.165 132.686 195.01 132.67" fill="#A67EE5"/>
        <path d="M195.06 132.67H21.95C18.7847 132.67 15.7475 133.92 13.4999 136.149C11.2523 138.378 9.97637 141.405 9.95 144.57V198.19C9.95 201.638 11.3196 204.944 13.7576 207.382C16.1956 209.82 19.5022 211.19 22.95 211.19H206.95V144.57C206.924 141.424 205.663 138.414 203.439 136.188C201.215 133.962 198.206 132.699 195.06 132.67V132.67Z" stroke="white" stroke-width="2" stroke-miterlimit="10"/>
        <path d="M25 211.19V147.68C25 143.702 26.5804 139.886 29.3934 137.073C32.2064 134.26 36.0218 132.68 40 132.68H40.5" stroke="white" stroke-width="2"/>
      </g>
      <g id="flowers-group" transform="rotate(60 100 215)">
        <animateTransform
          attributeName="transform"
          type="rotate"
          begin="fadeThirdPrize.end + 0.2s"
          values="90 100 215;60 100 215;30 100 215; -30 100 215; 0 100 215; 10 100 215; -10 100 215;0 100 215"
          dur="1s"
          fill="freeze"
          id="groupFlowers"
        />
        <path d="M135.49 199.99C135.49 199.99 143.79 125.4 175.2 109.99" stroke="white" stroke-width="2" stroke-linecap="round" stroke-linejoin="round"/>
        <path d="M172.71 109.31L181.98 84.82C185.066 85.1928 188.038 86.2152 190.7 87.82C192.347 86.7012 194.356 86.2481 196.324 86.5519C198.291 86.8558 200.071 87.8941 201.303 89.4575C202.536 91.021 203.13 92.9935 202.966 94.9776C202.802 96.9617 201.892 98.81 200.42 100.15C201.348 103.116 201.641 106.244 201.28 109.33L175.28 112.63C174.862 112.683 174.437 112.626 174.046 112.467C173.656 112.307 173.314 112.049 173.052 111.718C172.791 111.387 172.619 110.995 172.554 110.578C172.489 110.161 172.532 109.735 172.68 109.34" fill="#3B7BF2"/>
        <path d="M133 209.82C133 209.82 139.89 165.14 170.95 153.29" stroke="white" stroke-width="2" stroke-linecap="round" stroke-linejoin="round"/>
        <path d="M165.61 154.19L174.61 137.72C176.833 138.265 178.92 139.263 180.74 140.65C181.984 140.048 183.398 139.9 184.74 140.23C185.472 140.396 186.163 140.706 186.774 141.141C187.386 141.576 187.904 142.128 188.301 142.765C188.697 143.402 188.963 144.112 189.083 144.853C189.203 145.593 189.175 146.35 189 147.08C188.661 148.402 187.845 149.552 186.71 150.31C187.125 152.492 187.053 154.739 186.5 156.89L167.16 156.78C166.853 156.787 166.55 156.715 166.28 156.569C166.01 156.423 165.783 156.209 165.621 155.948C165.46 155.687 165.369 155.389 165.358 155.082C165.347 154.776 165.417 154.471 165.56 154.2" fill="#3B7BF2"/>
      </g>
      <g transform="translate(0 130)">
        <animateTransform
          attributeName="transform"
          type="translate"
          from="0 130"
          to="0 0"
          dur="0.4s"
          fill="freeze"
          begin="fadeThirdPrize.end + 0.2s"
        />
        <path d="M62.41 88.9V211.21" stroke="white" stroke-width="2" stroke-miterlimit="10" stroke-linecap="round">
          <animateTransform
            attributeName="transform"
            type="rotate"
            values="-2 62 211; 2 62 211; -2 62 211; 0 62 211"
            dur="1s"
            fill="freeze"
            additive="sum"
            begin="moveBall.end"
          />
        </path>
        <g id="ball" transform="rotate(90 61 84)">
          <animateTransform
            attributeName="transform"
            type="rotate"
            from="90 61 84"
            to="0 61 84"
            dur="0.4s"
            fill="freeze"
            begin="fadeThirdPrize.end + 0.2s"
            id="moveBall"
          />
          <animateTransform
            attributeName="transform"
            type="rotate"
            values="6 61 64; -6 61 64; 6 61 64; 0 61 64"
            dur="1s"
            fill="freeze"
            additive="sum"
            begin="moveBall.end"
          />
          <animateTransform
            attributeName="transform"
            type="translate"
            values="0 0; 0 20; 0 0; 0 10; 0 0; 0 10; 0 0"
            dur="1s"
            fill="freeze"
            additive="sum"
            begin="moveBall.end"
          />
          <path d="M62.5 1.61C71.2231 1.61265 79.5883 5.07837 85.7574 11.2456C91.9264 17.4128 95.3947 25.7769 95.4 34.5C95.4 52.67 80.31 83.39 62.15 83.39C43.99 83.39 29.6 52.66 29.6 34.5C29.6053 25.7769 33.0736 17.4128 39.2427 11.2456C45.4117 5.07837 53.7769 1.61265 62.5 1.61V1.61ZM62.5 0C53.3533 0.0105865 44.5842 3.6488 38.1165 10.1165C31.6488 16.5842 28.0106 25.3533 28 34.5C28 44.01 31.8 56.6 37.68 66.57C44.68 78.45 53.36 84.99 62.14 84.99C70.92 84.99 79.74 78.45 86.95 66.59C93.05 56.59 97 43.95 97 34.5C96.9894 25.3533 93.3512 16.5842 86.8835 10.1165C80.4158 3.6488 71.6467 0.0105865 62.5 0" fill="white"/>
          <path d="M50.82 34.58C50.82 16.42 56.05 1.69 62.5 1.69C53.7769 1.69265 45.4117 5.15837 39.2426 11.3256C33.0736 17.4928 29.6053 25.8569 29.6 34.58C29.6 52.75 43.98 83.47 62.15 83.47H62.32C55.89 83.28 50.82 52.7 50.82 34.58Z" fill="#76ABFF"/>
          <path d="M95.4 34.58C95.3947 25.8569 91.9264 17.4928 85.7574 11.3256C79.5883 5.15837 71.2231 1.69265 62.5 1.69C68.95 1.69 74.18 16.42 74.18 34.58C74.18 52.74 68.89 83.06 62.5 83.45C80.5 83.06 95.4 52.63 95.4 34.58" fill="#1553B7"/>
          <path d="M74.18 34.58C74.18 16.42 68.95 1.69 62.5 1.69C56.05 1.69 50.82 16.42 50.82 34.58C50.82 52.74 55.89 83.27 62.32 83.47H62.5C68.89 83.07 74.18 52.64 74.18 34.59" fill="#3B7BF2"/>
          <path d="M55.3 27.55C54.1726 27.55 53.0706 27.8843 52.1332 28.5106C51.1959 29.137 50.4653 30.0272 50.0339 31.0687C49.6025 32.1103 49.4896 33.2563 49.7095 34.362C49.9295 35.4677 50.4723 36.4834 51.2695 37.2805C52.0666 38.0777 53.0823 38.6205 54.188 38.8405C55.2937 39.0604 56.4398 38.9475 57.4813 38.5161C58.5228 38.0847 59.413 37.3541 60.0394 36.4168C60.6657 35.4794 61 34.3774 61 33.25C61.0451 32.4897 60.9286 31.7284 60.6581 31.0164C60.3877 30.3044 59.9694 29.6578 59.4308 29.1192C58.8922 28.5806 58.2456 28.1623 57.5336 27.8918C56.8216 27.6214 56.0603 27.5049 55.3 27.55V27.55ZM55.3 35.55C53.44 35.55 52.24 34.62 52.24 33.26C52.24 31.9 53.45 30.97 55.3 30.97C57.15 30.97 58.37 31.9 58.37 33.26C58.37 34.62 57.12 35.55 55.3 35.55Z" fill="white"/>
          <path d="M69.5 27.55C69.8256 27.5498 70.1451 27.6389 70.4236 27.8076C70.7021 27.9764 70.929 28.2183 71.0796 28.507C71.2301 28.7957 71.2986 29.1203 71.2775 29.4452C71.2564 29.7702 71.1466 30.0831 70.96 30.35L57.63 49.69C57.3428 50.0216 56.9437 50.2363 56.5087 50.2931C56.0736 50.3499 55.6329 50.2449 55.2701 49.9981C54.9073 49.7514 54.6478 49.38 54.5409 48.9544C54.434 48.5289 54.487 48.079 54.69 47.69L68.03 28.35C68.1934 28.1113 68.4129 27.9163 68.6692 27.782C68.9254 27.6478 69.2107 27.5784 69.5 27.58" fill="white"/>
          <path d="M70.97 39.07C69.8426 39.07 68.7406 39.4043 67.8033 40.0306C66.8659 40.6569 66.1353 41.5472 65.7039 42.5887C65.2725 43.6302 65.1596 44.7763 65.3795 45.882C65.5995 46.9877 66.1423 48.0034 66.9395 48.8005C67.7366 49.5977 68.7523 50.1405 69.858 50.3605C70.9637 50.5804 72.1098 50.4675 73.1513 50.0361C74.1928 49.6047 75.0831 48.8741 75.7094 47.9367C76.3357 46.9994 76.67 45.8974 76.67 44.77C76.7135 44.0101 76.5959 43.2495 76.3249 42.5382C76.0538 41.827 75.6355 41.181 75.0972 40.6428C74.559 40.1045 73.913 39.6862 73.2018 39.4151C72.4905 39.1441 71.7299 39.0265 70.97 39.07ZM70.97 47.07C69.11 47.07 67.91 46.14 67.91 44.78C67.91 43.42 69.12 42.49 70.97 42.49C72.82 42.49 74.04 43.39 74.04 44.78C74.04 46.17 72.83 47.07 70.97 47.07Z" fill="white"/>
          <path d="M61.34 84.06L59.15 87.85C59.0345 88.0541 58.9746 88.285 58.9762 88.5196C58.9779 88.7542 59.0411 88.9842 59.1596 89.1866C59.278 89.3891 59.4475 89.5569 59.6512 89.6733C59.8548 89.7898 60.0854 89.8507 60.32 89.85H64.69C64.9237 89.8489 65.1531 89.7867 65.3554 89.6696C65.5576 89.5525 65.7257 89.3845 65.843 89.1823C65.9602 88.9801 66.0226 88.7508 66.0238 88.5171C66.025 88.2834 65.9651 88.0534 65.85 87.85L63.67 84.06C63.551 83.8567 63.3808 83.6881 63.1764 83.5709C62.9721 83.4538 62.7406 83.3921 62.505 83.3921C62.2694 83.3921 62.0379 83.4538 61.8336 83.5709C61.6292 83.6881 61.459 83.8567 61.34 84.06Z" fill="white"/>
        </g>
      </g>
      <g id="bird" transform="translate(-60 110)">
        <animateTransform
          attributeName="transform"
          type="translate"
          values="-60 110; 0 0"
          dur="0.4s"
          fill="freeze"
          begin="fadeThirdPrize.end + 0.3s"
          id="moveBird"
        />
        <animateTransform
          attributeName="transform"
          type="translate"
          values="0 0; 4 -10; 0 0; -4 10; 0 0"
          dur="2s"
          begin="moveBird.end"
          repeatCount="indefinite"
          additive="sum"
          id="moveBirdIndefinite"
        />
        <animateTransform
          attributeName="transform"
          type="rotate"
          values="0 228 110; 10 228 110; 0 228 110; -10 228 110; 0 228 110"
          dur="2s"
          begin="moveBirdIndefinite.begin + 0.4s"
          repeatCount="indefinite"
          additive="sum"
        />

        <g>
          <path d="M233.96 105.99C233.952 104.877 234.325 103.795 235.016 102.922C235.707 102.049 236.675 101.438 237.76 101.19V101.19L258.83 95.79C251.05 110.63 239.65 110.86 238.83 110.86C237.539 110.847 236.306 110.325 235.397 109.407C234.489 108.49 233.98 107.251 233.98 105.96" fill="white">
            <animateTransform
              attributeName="transform"
              type="rotate"
              values="0 240 110; -100 240 110"
              calcMode="discrete"
              additive="sum"
              dur="0.1s"
              repeatCount="indefinite"
            />
          </path>
        </g>
        <path d="M217 92.05H227.76C228.115 91.1766 228.726 90.4316 229.514 89.9137C230.301 89.3958 231.228 89.1295 232.17 89.15C232.853 89.1132 233.534 89.2563 234.145 89.5652C234.756 89.874 235.275 90.3378 235.65 90.91C236.2 91.7206 236.659 92.5892 237.02 93.5C237.65 95.07 241.02 109.3 242.91 112.66C244.01 114.66 247.3 119.82 247.3 119.82C247.503 120.169 247.609 120.566 247.61 120.97V130.19C247.61 130.19 244.5 129.11 244.5 126.28V119.75C242.59 120.02 238.5 118.1 236.17 116.87C233.28 115.49 231.011 113.079 229.81 110.11C228.598 107.184 228.559 103.904 229.7 100.95C230.168 100.047 230.437 99.0552 230.49 98.04C230.43 96.9 229.1 95.32 228.31 93.99L217 92.05Z" fill="white"/>
      </g>
      <g id="big-flower" transform="rotate(90 136 215)">
        <animateTransform
          attributeName="transform"
          type="rotate"
          begin="groupFlowers.begin"
          values="90 136 215;60 136 215;30 136 215; -30 136 215; 0 136 215; 10 136 215; -10 136 215;0 136 215"
          dur="1s"
          fill="freeze"
        />
        <path d="M96.53 126.35C120.63 158.8 132.34 210.35 132.34 210.35" stroke="#3B7BF2" stroke-width="2" stroke-linecap="round" stroke-linejoin="round"/>
        <path d="M80.49 118.41C87.03 125.92 97.65 127.41 97.65 127.41C97.65 127.41 97.65 116.69 91.12 109.19C84.59 101.69 73.95 100.19 73.95 100.19C73.95 100.19 73.95 110.91 80.49 118.41" fill="#76ABFF"/>
        <path d="M107.93 128.73C105.24 138.31 109.84 148 109.84 148C109.84 148 118.84 142.14 121.51 132.55C124.18 122.96 119.6 113.28 119.6 113.28C119.6 113.28 110.6 119.14 107.93 128.73Z" fill="#3B7BF2"/>
        <path d="M90.58 149.9C100.17 152.6 109.84 147.99 109.84 147.99C109.84 147.99 103.98 138.99 94.39 136.32C84.8 133.65 75.13 138.19 75.13 138.19C75.13 138.19 81 147.19 90.58 149.86" fill="#3B7BF2"/>
        <path d="M120.86 154.71C117.45 164.07 121.33 174.06 121.33 174.06C121.33 174.06 130.72 168.88 134.12 159.53C137.52 150.18 133.65 140.19 133.65 140.19C133.65 140.19 124.26 145.37 120.86 154.72" fill="#1553B7"/>
        <path d="M101.98 174.54C111.34 177.94 121.33 174.07 121.33 174.07C121.33 174.07 116.15 164.68 106.79 161.28C97.43 157.88 87.44 161.75 87.44 161.75C87.44 161.75 92.62 171.14 101.98 174.54Z" fill="#1553B7"/>
      </g>
      <g id="small-flower" transform="rotate(90 136 215)">
        <animateTransform
          attributeName="transform"
          type="rotate"
          begin="groupFlowers.begin + 0.2s"
          values="90 136 215;60 136 215;30 136 215; -30 136 215; 0 136 215; 10 136 215; -10 136 215;0 136 215"
          dur="1s"
          fill="freeze"
        />
        <path d="M138.55 186.96C140.85 196.06 136.28 205.08 136.28 205.08C136.28 205.08 127.96 199.34 125.65 190.23C123.34 181.12 127.92 172.11 127.92 172.11C127.92 172.11 136.24 177.86 138.55 186.96Z" fill="#3B7BF2"/>
        <path d="M154.39 207.35C145.28 209.66 136.27 205.08 136.27 205.08C136.27 205.08 142.01 196.76 151.12 194.45C160.23 192.14 169.24 196.72 169.24 196.72C169.24 196.72 163.49 205.04 154.39 207.35Z" fill="#3B7BF2"/>
        <path d="M143.32 193.86C139.511 199.157 136.067 204.706 133.01 210.47" stroke="#3B7BF2" stroke-width="2" stroke-linecap="round" stroke-linejoin="round"/>
        <path d="M158.45 186.38C152.28 193.46 142.26 194.82 142.26 194.82C142.26 194.82 142.26 184.71 148.42 177.64C154.58 170.57 164.61 169.19 164.61 169.19C164.61 169.19 164.61 179.3 158.45 186.38Z" fill="#76ABFF"/>
      </g>
    </g>

    <g id="cap-bottom">
      <path d="M235.05 240.81C236.2 240.931 237.361 240.701 238.378 240.149C239.394 239.598 240.22 238.751 240.746 237.72C241.271 236.69 241.472 235.524 241.321 234.377C241.171 233.23 240.676 232.155 239.902 231.296C239.128 230.436 238.112 229.83 236.987 229.56C235.862 229.29 234.682 229.367 233.602 229.781C232.522 230.195 231.592 230.927 230.937 231.88C230.281 232.834 229.93 233.963 229.93 235.12C229.859 236.552 230.358 237.955 231.317 239.021C232.276 240.087 233.618 240.73 235.05 240.81Z" fill="#A67EE5"/>
      <path d="M235.05 240.8C237.878 240.8 240.17 238.253 240.17 235.11C240.17 231.968 237.878 229.42 235.05 229.42C232.222 229.42 229.93 231.968 229.93 235.11C229.93 238.253 232.222 240.8 235.05 240.8Z" stroke="white" stroke-width="2" stroke-miterlimit="10"/>
      <path d="M184.98 251.05H36.98C33.8509 251.077 30.8381 249.865 28.5993 247.678C26.3605 245.492 25.0774 242.509 25.03 239.38V211.19H196.92V239.36C196.875 242.488 195.594 245.471 193.357 247.658C191.12 249.844 188.108 251.057 184.98 251.03" fill="#A67EE5"/>
      <path d="M184.98 251.05H36.98C33.8509 251.077 30.8381 249.865 28.5993 247.678C26.3605 245.492 25.0774 242.509 25.03 239.38V211.19H196.92V239.36C196.88 242.492 195.602 245.48 193.364 247.671C191.126 249.862 188.112 251.077 184.98 251.05V251.05Z" stroke="white" stroke-width="2" stroke-miterlimit="10"/>
      <path d="M221.48 251.05H74.48C71.3615 251.066 68.3633 249.848 66.1395 247.662C63.9157 245.475 62.6469 242.498 62.61 239.38V211.19H233.34V239.36C233.308 242.478 232.043 245.457 229.82 247.644C227.597 249.831 224.598 251.049 221.48 251.03" fill="#A67EE5"/>
      <path d="M221.48 251.05H74.48C71.3615 251.066 68.3633 249.848 66.1395 247.662C63.9157 245.475 62.6469 242.498 62.61 239.38V211.19H233.34V239.36C233.314 242.482 232.05 245.465 229.827 247.657C227.603 249.848 224.602 251.069 221.48 251.05Z" stroke="white" stroke-width="2" stroke-miterlimit="10"/>
      <path d="M169.76 236.26H135.25C134.123 236.282 133.032 235.856 132.217 235.077C131.402 234.297 130.929 233.227 130.9 232.1V220.4C130.903 220.236 130.938 220.075 131.003 219.925C131.068 219.775 131.163 219.639 131.281 219.525C131.399 219.412 131.538 219.323 131.691 219.264C131.843 219.204 132.006 219.176 132.17 219.18H135.05C135.38 219.175 135.698 219.3 135.936 219.528C136.174 219.757 136.312 220.07 136.32 220.4V230.4C136.33 230.749 136.478 231.08 136.731 231.322C136.983 231.563 137.321 231.695 137.67 231.69H167.38C167.729 231.695 168.067 231.563 168.319 231.322C168.572 231.08 168.72 230.749 168.73 230.4V220.4C168.733 220.236 168.768 220.075 168.833 219.925C168.898 219.775 168.993 219.639 169.111 219.525C169.229 219.412 169.368 219.323 169.521 219.264C169.673 219.204 169.836 219.176 170 219.18H172.88C173.21 219.175 173.528 219.3 173.766 219.528C174.004 219.757 174.142 220.07 174.15 220.4V232.09C174.121 233.217 173.648 234.287 172.833 235.067C172.018 235.846 170.927 236.271 169.8 236.25" fill="#A67EE5"/>
      <path d="M169.76 236.26H135.25C134.123 236.282 133.032 235.856 132.217 235.077C131.402 234.297 130.929 233.227 130.9 232.1V220.4C130.903 220.236 130.938 220.075 131.003 219.925C131.068 219.775 131.163 219.639 131.281 219.525C131.399 219.412 131.538 219.323 131.691 219.264C131.843 219.204 132.006 219.176 132.17 219.18H135.05C135.38 219.175 135.698 219.3 135.936 219.528C136.174 219.757 136.312 220.07 136.32 220.4V230.4C136.33 230.749 136.478 231.08 136.731 231.322C136.983 231.563 137.321 231.695 137.67 231.69H167.38C167.729 231.695 168.067 231.563 168.319 231.322C168.572 231.08 168.72 230.749 168.73 230.4V220.4C168.733 220.236 168.768 220.075 168.833 219.925C168.898 219.775 168.993 219.639 169.111 219.525C169.229 219.412 169.368 219.323 169.521 219.264C169.673 219.204 169.836 219.176 170 219.18H172.88C173.21 219.175 173.528 219.3 173.766 219.528C174.004 219.757 174.142 220.07 174.15 220.4V232.09C174.137 232.653 174.013 233.207 173.785 233.721C173.557 234.236 173.23 234.7 172.822 235.088C172.414 235.475 171.933 235.778 171.408 235.979C170.882 236.181 170.322 236.276 169.76 236.26V236.26Z" stroke="white" stroke-width="2" stroke-miterlimit="10"/>
      <path d="M102.44 204.38H93.34V216.9H102.44V204.38Z" fill="#A67EE5"/>
      <path d="M102.44 204.38H93.34V216.9H102.44V204.38Z" stroke="white" stroke-width="2" stroke-miterlimit="10"/>
      <path d="M211.71 204.38H202.61V216.9H211.71V204.38Z" fill="#A67EE5"/>
      <path d="M211.71 204.38H202.61V216.9H211.71V204.38Z" stroke="white" stroke-width="2" stroke-miterlimit="10"/>
      <path d="M233.34 239.3V229.43H222.94C221.438 229.467 220.012 230.098 218.975 231.186C217.938 232.273 217.375 233.728 217.41 235.23V251.05H222.14C228.3 251.05 233.34 245.76 233.34 239.3" fill="#A67EE5"/>
      <path d="M233.34 239.3V229.43H222.94C221.438 229.467 220.012 230.098 218.975 231.186C217.938 232.273 217.375 233.728 217.41 235.23V251.05H222.14C228.3 251.05 233.34 245.77 233.34 239.3Z" stroke="white" stroke-width="2" stroke-miterlimit="10"/>
      <path d="M54.76 223.73H33.98C33.7148 223.73 33.4604 223.625 33.2729 223.437C33.0854 223.25 32.98 222.995 32.98 222.73V220.19C32.98 219.925 33.0854 219.67 33.2729 219.483C33.4604 219.295 33.7148 219.19 33.98 219.19H54.76C55.0252 219.19 55.2796 219.295 55.4671 219.483C55.6546 219.67 55.76 219.925 55.76 220.19V222.77C55.76 223.035 55.6546 223.29 55.4671 223.477C55.2796 223.665 55.0252 223.77 54.76 223.77" fill="#A67EE5"/>
      <path d="M54.76 223.73H33.98C33.7148 223.73 33.4604 223.625 33.2729 223.437C33.0854 223.25 32.98 222.995 32.98 222.73V220.19C32.98 219.925 33.0854 219.67 33.2729 219.483C33.4604 219.295 33.7148 219.19 33.98 219.19H54.76C55.0252 219.19 55.2796 219.295 55.4671 219.483C55.6546 219.67 55.76 219.925 55.76 220.19V222.77C55.7497 223.028 55.6398 223.272 55.4533 223.451C55.2669 223.63 55.0184 223.73 54.76 223.73Z" stroke="white" stroke-width="2" stroke-miterlimit="10"/>
    </g>
    <g id="cap-top-closed" opacity="1">
      <animate
        attributeName="opacity"
        from="0"
        to="1"
        calcMode="discrete"
        begin="fadeThirdPrize.end + 0.2s"
        fill="freeze"
      />
      <path d="M180.27 180.011H37.07C33.9986 180.024 31.0573 181.253 28.8893 183.428C26.7212 185.604 25.5026 188.549 25.5 191.621V211.371H191.83V191.611C191.827 188.541 190.61 185.597 188.444 183.422C186.278 181.246 183.34 180.016 180.27 180.001" fill="#A67EE5"/>
      <path d="M180.27 180.011H37.07C33.9986 180.024 31.0573 181.253 28.8893 183.428C26.7212 185.604 25.5026 188.549 25.5 191.621V211.371H191.83V191.611C191.825 188.543 190.606 185.601 188.441 183.428C186.275 181.255 183.338 180.026 180.27 180.011Z" stroke="white" stroke-width="2" stroke-miterlimit="10"/>
      <path d="M221.5 180.011H73.62C70.5014 179.979 67.4967 181.181 65.2617 183.356C63.0266 185.531 61.7427 188.502 61.69 191.621V211.371H233.39V191.611C233.337 188.492 232.053 185.521 229.818 183.346C227.583 181.171 224.579 179.968 221.46 180.001" fill="#A67EE5"/>
      <path d="M221.5 180.011H73.62C70.5014 179.979 67.4967 181.181 65.2617 183.356C63.0266 185.531 61.7427 188.502 61.69 191.621V211.371H233.39V191.611C233.335 188.501 232.055 185.539 229.829 183.367C227.603 181.195 224.61 179.989 221.5 180.011V180.011Z" stroke="white" stroke-width="2" stroke-miterlimit="10"/>
      <path d="M233.13 201.361C234.187 201.365 235.221 201.055 236.102 200.47C236.983 199.886 237.671 199.053 238.078 198.078C238.485 197.103 238.594 196.028 238.39 194.991C238.186 193.954 237.679 193.001 236.933 192.252C236.187 191.503 235.236 190.992 234.199 190.785C233.163 190.577 232.088 190.682 231.111 191.085C230.134 191.489 229.299 192.173 228.711 193.052C228.124 193.93 227.81 194.964 227.81 196.021C227.807 196.721 227.943 197.415 228.209 198.063C228.475 198.71 228.867 199.299 229.361 199.795C229.855 200.292 230.443 200.685 231.089 200.954C231.736 201.222 232.43 201.361 233.13 201.361Z" fill="#A67EE5"/>
      <path d="M233.13 201.361C236.063 201.361 238.44 198.97 238.44 196.021C238.44 193.071 236.063 190.681 233.13 190.681C230.197 190.681 227.82 193.071 227.82 196.021C227.82 198.97 230.197 201.361 233.13 201.361Z" stroke="white" stroke-width="2" stroke-miterlimit="10"/>
      <path d="M232.01 191.611V201.361H221.28C220.529 201.359 219.785 201.21 219.092 200.921C218.398 200.633 217.768 200.21 217.238 199.678C216.708 199.146 216.288 198.515 216.002 197.82C215.715 197.126 215.569 196.382 215.57 195.631V180.011H220.45C223.52 180.024 226.461 181.253 228.627 183.429C230.794 185.605 232.01 188.55 232.01 191.621" fill="#A67EE5"/>
      <path d="M232.01 191.611V201.361H221.28C220.529 201.359 219.785 201.21 219.092 200.921C218.398 200.633 217.768 200.21 217.238 199.678C216.708 199.146 216.288 198.515 216.002 197.82C215.715 197.126 215.569 196.382 215.57 195.631V180.011H220.45C223.519 180.024 226.457 181.252 228.624 183.425C230.79 185.599 232.007 188.542 232.01 191.611Z" stroke="white" stroke-width="2" stroke-miterlimit="10"/>
      <path d="M102.07 204.151H92.97V216.671H102.07V204.151Z" fill="#A67EE5"/>
      <path d="M102.07 204.151H92.97V216.671H102.07V204.151Z" stroke="white" stroke-width="2" stroke-miterlimit="10"/>
      <path d="M211.34 204.151H202.24V216.671H211.34V204.151Z" fill="#A67EE5"/>
      <path d="M211.34 204.151H202.24V216.671H211.34V204.151Z" stroke="white" stroke-width="2" stroke-miterlimit="10"/>
    </g>
    <path d="M1 251.19H258.52" stroke="white" stroke-width="2" stroke-linecap="round" stroke-linejoin="round"/>
  </g>
</svg>
